# xmcd
# 
# Track frame offsets:
#     150
#     15586
#     31712
#     47031
# 
# Disc length: 839
# 
# Revision: 2
# Processed by: cddbd v1.5.2PL0 Copyright (c) Steve Scherf et al.
# Submitted via: fre:ac v1.0.17
# 
DISCID=22034504
DTITLE=バニラビーンズ - チョコミントフレーバータイム
DYEAR=2012
DGENRE=JPop
TTITLE0=チョコミントフレーバータイム
TTITLE1=ひとつのうた
TTITLE2=チョコミントフレーバータイム（Instrumental）
TTITLE3=ひとつのうた（Instrumental）
EXTD=
EXTT0=
EXTT1=
EXTT2=
EXTT3=
PLAYORDER=
